<?xml version="1.0" standalone="no"?>
<!DOCTYPE svg PUBLIC "-//W3C//DTD SVG 20010904//EN"
 "http://www.w3.org/TR/2001/REC-SVG-20010904/DTD/svg10.dtd">
<svg version="1.0" xmlns="http://www.w3.org/2000/svg"
 width="1280.000000pt" height="640.000000pt" viewBox="0 0 1280.000000 640.000000"
 preserveAspectRatio="xMidYMid meet">
<g transform="translate(0.000000,640.000000) scale(0.100000,-0.100000)"
fill="__replace_color_here__" stroke="none">
<path d="M5283 5659 c-88 -11 -248 -56 -308 -86 -68 -35 -141 -85 -340 -234
-324 -242 -573 -462 -1058 -935 l-320 -311 -236 -36 c-1033 -160 -1058 -165
-1436 -253 -352 -82 -497 -125 -695 -204 -207 -82 -402 -201 -499 -306 -73
-77 -104 -139 -103 -206 0 -34 -4 -48 -14 -48 -18 0 -19 -60 -1 -60 6 -1 1
-10 -12 -20 -18 -16 -22 -27 -18 -53 3 -23 -1 -38 -16 -55 -18 -20 -20 -27
-10 -52 10 -26 9 -32 -8 -40 -10 -6 -19 -20 -19 -31 0 -15 -17 -27 -67 -50
-64 -28 -123 -72 -123 -91 0 -4 8 -16 18 -26 11 -11 22 -35 25 -55 5 -31 2
-39 -20 -55 l-25 -18 55 -249 55 -250 -24 -28 c-52 -62 -7 -157 76 -157 16 0
20 -6 20 -31 0 -24 -11 -41 -50 -78 -39 -37 -50 -54 -50 -78 0 -64 90 -127
224 -158 45 -10 272 -35 322 -35 2 0 4 -22 4 -48 0 -26 5 -53 12 -60 15 -15
247 -16 300 -2 23 7 50 26 71 50 l34 40 100 0 100 0 53 -87 c62 -101 230 -276
323 -337 239 -155 525 -218 788 -171 316 55 579 233 751 507 32 50 70 124 85
165 32 85 37 88 138 70 l70 -12 5 -57 c9 -99 -18 -93 428 -90 551 4 3158 20
4527 28 638 4 1170 11 1183 15 23 9 36 32 46 81 l6 28 90 0 c69 0 90 -3 90
-13 0 -8 22 -58 49 -113 145 -296 401 -506 721 -591 95 -25 120 -28 270 -27
147 0 176 4 265 28 239 64 459 211 606 405 49 66 159 270 159 297 0 11 25 14
138 14 168 0 206 9 234 56 l20 34 128 0 c144 0 140 -3 140 88 l0 42 53 0 c63
0 90 16 117 71 29 56 70 173 70 198 0 19 -37 51 -75 65 -5 2 2 15 18 29 22 22
27 34 27 76 0 36 -5 53 -17 59 -15 9 -15 12 2 48 38 81 29 368 -15 453 -20 40
-81 91 -110 91 -20 0 -132 53 -169 81 -28 20 -30 26 -36 118 -19 278 -59 579
-91 688 -5 20 0 24 50 38 45 13 57 21 62 41 9 34 -11 69 -64 112 -25 20 -56
60 -72 92 -38 76 -98 150 -164 202 -30 24 -55 48 -55 55 -1 6 23 19 52 27 64
19 134 67 147 102 17 44 12 126 -10 164 -48 84 -89 170 -110 230 -36 99 -51
117 -116 130 -84 18 -252 -5 -451 -61 -127 -36 -203 -47 -400 -58 -120 -6
-160 -12 -192 -28 l-41 -21 -6 27 c-56 234 -176 548 -264 684 -33 52 -86 83
-126 73 -38 -10 -91 -64 -109 -110 -16 -41 -16 -50 -1 -121 20 -97 20 -92 -6
-101 -53 -16 -98 -58 -125 -112 -23 -47 -28 -73 -31 -153 -5 -108 2 -130 51
-159 26 -16 51 -20 125 -20 87 0 93 -1 101 -22 8 -21 4 -24 -38 -36 -147 -42
-172 -65 -196 -179 -9 -43 -21 -94 -26 -114 l-9 -36 -147 -7 c-82 -4 -186 -11
-233 -16 -86 -9 -789 -62 -1325 -99 -159 -12 -311 -23 -336 -25 l-47 -5 -7 62
c-6 55 -11 65 -51 106 -54 54 -53 73 6 116 22 17 53 50 69 75 124 192 12 490
-184 490 -59 0 -103 -19 -148 -64 -121 -121 -124 -336 -7 -469 16 -19 43 -40
60 -47 44 -18 37 -34 -24 -53 -90 -29 -121 -64 -160 -184 l-17 -52 -62 -5
c-34 -3 -431 -17 -882 -31 -451 -14 -886 -28 -966 -32 l-146 -6 -62 159 c-94
238 -112 262 -203 279 -31 6 -41 3 -62 -19 -15 -14 -26 -35 -26 -48 0 -22 -4
-23 -73 -23 -65 0 -81 -4 -162 -45 -114 -56 -195 -133 -214 -202 -8 -26 -11
-57 -8 -69 12 -45 -11 -59 -95 -59 -43 0 -78 2 -78 5 0 11 481 608 618 767
175 203 294 320 415 406 58 43 85 68 80 76 -27 44 -115 161 -160 213 -61 70
-141 116 -232 133 -59 11 -69 11 -158 -1z m181 -108 c28 -22 71 -58 96 -81
l45 -41 -135 5 c-164 7 -500 38 -500 47 0 12 125 63 210 85 50 14 115 23 159
24 71 0 76 -2 125 -39z m5155 -128 c18 -12 121 -207 121 -228 0 -3 -29 -5 -63
-5 l-64 0 -13 43 c-7 23 -25 68 -41 100 l-30 57 27 25 c32 30 33 30 63 8z
m-5576 -59 c97 -10 177 -21 177 -24 0 -7 -754 -826 -858 -933 -93 -95 -211
-195 -272 -230 -56 -32 -201 -75 -295 -87 -63 -8 -85 -6 -225 27 -85 20 -156
37 -158 38 -2 2 72 77 165 168 425 415 758 707 1108 970 102 77 135 97 155 93
14 -2 105 -12 203 -22z m5534 -176 c4 -20 1 -28 -8 -28 -16 0 -36 56 -44 121
l-5 44 26 -54 c14 -30 28 -67 31 -83z m231 -161 c28 -73 54 -145 57 -159 l7
-27 -50 6 c-28 3 -64 1 -82 -6 l-32 -11 5 43 c3 23 9 67 12 97 l7 55 -54 35
c-39 26 -54 42 -56 62 -3 25 0 27 40 31 105 9 90 22 146 -126z m1244 -207 c20
-6 39 -18 43 -28 10 -23 23 -92 18 -92 -2 0 -18 7 -35 16 -47 24 -101 12 -238
-51 -121 -56 -259 -108 -315 -119 -16 -3 -85 -10 -152 -16 l-122 -11 -58 40
c-32 22 -84 49 -115 61 -123 46 -95 58 199 91 265 30 305 36 435 70 170 44
277 56 340 39z m-1195 -27 c12 -8 27 -29 32 -46 11 -35 46 -366 39 -373 -7 -7
-109 -24 -144 -24 -32 0 -34 2 -34 32 0 19 -9 41 -22 56 -21 22 -23 34 -26
169 -4 160 0 171 63 199 32 14 56 10 92 -13z m1229 -127 c56 -87 -76 -136
-366 -135 l-105 0 95 38 c52 21 131 56 175 79 63 32 91 41 132 42 45 0 55 -4
69 -24z m64 -43 c0 -15 -13 -38 -35 -60 -19 -19 -35 -41 -35 -49 0 -17 -23
-29 -124 -64 -221 -77 -502 -93 -536 -31 -10 21 9 44 46 55 12 4 131 13 265
20 202 12 253 18 299 35 66 26 100 61 100 102 0 18 4 28 10 24 6 -3 10 -18 10
-32z m-1037 -49 c18 -9 55 -33 82 -53 49 -35 52 -36 132 -34 l81 2 -14 -27
c-20 -38 -18 -50 15 -83 l29 -29 -37 0 c-21 0 -59 -3 -84 -6 -42 -6 -49 -4
-78 25 -25 25 -30 37 -26 60 8 38 -12 64 -89 112 -35 23 -64 43 -64 45 0 8 22
3 53 -12z m1091 -30 c9 -20 16 -37 14 -39 -2 -1 -22 0 -45 3 l-42 4 22 34 c12
19 25 34 28 34 3 0 13 -16 23 -36z m-1139 -44 c111 -75 111 -86 -2 -92 l-72
-4 -3 73 c-2 40 -2 73 0 73 2 0 36 -22 77 -50z m1129 -36 c34 -33 8 -73 -73
-113 -44 -21 -80 -30 -142 -36 -98 -8 -177 -26 -264 -61 -48 -19 -76 -24 -121
-22 l-59 4 52 8 c61 10 93 36 93 74 0 27 3 28 73 40 75 13 286 80 334 106 37
20 88 20 107 0z m-6733 -24 c21 -12 28 -26 104 -217 l53 -133 -49 0 c-27 0
-52 0 -56 0 -5 0 -11 35 -15 79 -5 62 -15 97 -42 155 -35 73 -43 106 -29 119
8 9 11 9 34 -3z m5754 -90 c3 -6 0 -12 -7 -15 -7 -2 -330 -32 -718 -65 -388
-33 -754 -65 -815 -70 -60 -5 -113 -10 -117 -10 -5 0 -8 -9 -8 -20 0 -20 -6
-20 -347 -19 -192 1 -337 4 -323 5 27 4 708 56 977 74 89 7 418 38 730 70 635
65 619 64 628 50z m420 -39 c0 -10 -22 -19 -64 -29 -36 -8 -76 -23 -91 -33
-24 -18 -56 -20 -480 -29 -780 -16 -935 -18 -920 -14 15 3 205 18 865 69 182
14 391 32 465 39 167 17 225 16 225 -3z m356 -51 c-18 -15 -38 -20 -86 -20
-34 0 -78 -2 -96 -5 l-34 -5 34 16 c32 14 119 30 181 32 l25 1 -24 -19z m74
-69 c3 -6 -9 -12 -27 -15 -38 -6 -1258 -13 -1253 -7 4 3 886 26 1162 30 62 0
114 -3 118 -8z m278 -362 c32 -27 36 -34 25 -45 -7 -8 -28 -16 -46 -20 l-32
-6 0 51 c0 28 3 51 8 51 4 0 25 -14 45 -31z m-11112 -306 c-67 -131 -102 -179
-253 -357 -202 -238 -388 -414 -388 -368 0 5 15 15 33 24 78 37 452 489 530
640 20 40 40 90 43 110 5 31 13 39 43 52 20 8 40 15 44 15 4 1 -19 -52 -52
-116z m-86 10 c-29 -68 -75 -143 -134 -216 -32 -40 -89 -112 -127 -162 -89
-116 -262 -305 -279 -305 -37 0 61 211 163 353 79 111 223 260 306 318 38 27
73 49 78 49 4 0 1 -17 -7 -37z m-746 -449 c12 -15 21 -37 21 -49 0 -18 -4 -21
-26 -17 -22 4 -24 8 -19 32 3 16 2 31 -4 35 -6 3 -11 10 -11 16 0 17 18 9 39
-17z m-9 -364 c0 -18 -7 -20 -61 -20 -78 0 -77 22 2 31 30 3 55 6 57 7 1 1 2
-7 2 -18z m12093 -19 c177 -5 200 -8 212 -24 18 -26 29 -166 26 -339 -1 -57
-5 -58 -98 -21 -54 22 -85 44 -155 111 -81 78 -163 184 -203 261 -16 33 -16
34 1 26 11 -4 108 -10 217 -14z m-12293 -138 c0 -14 -21 -87 -36 -130 -15 -40
-18 -43 -52 -43 -32 1 -35 2 -17 12 31 17 45 39 45 74 0 18 -6 35 -12 38 -10
3 -8 9 5 19 9 8 17 19 17 26 0 6 11 11 25 11 14 0 25 -3 25 -7z m1893 -215 c4
-29 10 -92 13 -139 l7 -86 -33 -23 c-49 -35 -93 -30 -207 23 -54 26 -98 51
-98 57 0 18 96 110 152 146 44 29 134 72 154 73 3 1 9 -23 12 -51z m8642 -124
l8 -101 -33 -23 c-49 -35 -92 -30 -208 25 -56 26 -102 51 -102 55 0 13 125
126 170 155 24 15 67 36 95 46 l50 18 7 -37 c3 -20 10 -82 13 -138z m-8224
129 c51 -25 96 -58 144 -106 l70 -70 -110 -54 c-73 -36 -120 -53 -139 -51 -62
6 -86 86 -71 243 4 51 11 75 20 75 7 0 46 -17 86 -37z m8627 4 c71 -36 145
-95 186 -147 l27 -34 -103 -53 c-147 -74 -182 -70 -208 27 -12 44 -8 188 6
224 9 22 20 20 92 -17z m1588 -202 c12 -47 -7 -55 -135 -55 -118 0 -161 12
-161 44 0 30 25 36 157 36 l133 0 6 -25z m-10465 -115 c21 -12 25 -50 7 -68
-39 -39 -100 17 -63 58 21 23 29 24 56 10z m8640 -11 c18 -18 19 -23 6 -42
-21 -32 -61 -34 -74 -4 -9 19 -8 29 3 46 19 27 38 27 65 0z m-8726 -9 c-4 -13
0 -31 10 -46 9 -14 15 -26 13 -27 -2 -1 -17 -15 -34 -30 -27 -24 -34 -26 -56
-16 -19 8 -31 8 -48 -1 -20 -11 -21 -10 -15 12 13 38 56 88 94 108 45 24 44
24 36 0z m158 6 c35 -14 107 -91 107 -113 0 -9 -8 -11 -24 -7 -13 3 -33 1 -45
-5 -16 -9 -24 -7 -44 12 -13 13 -29 26 -37 29 -10 3 -11 8 0 27 6 13 10 34 7
47 -5 28 -6 28 36 10z m8489 -63 c8 -9 2 -21 -21 -42 -28 -26 -35 -29 -57 -19
-18 8 -31 8 -49 0 -23 -11 -24 -10 -14 15 14 39 46 76 87 100 l37 23 3 -32 c2
-18 8 -39 14 -45z m139 67 c15 0 89 -72 105 -101 19 -38 18 -40 -11 -27 -19 8
-31 8 -50 0 -21 -10 -28 -8 -48 12 -13 13 -30 25 -38 28 -12 4 -12 7 0 21 7
10 11 30 9 47 -4 24 -1 30 9 25 8 -3 19 -5 24 -5z m-10531 -122 c13 -110 13
-141 -1 -132 -39 24 -62 158 -38 221 9 25 12 26 20 11 5 -10 14 -55 19 -100z
m1849 -3 c31 -15 41 -33 41 -70 0 -37 -10 -55 -42 -71 -48 -25 -101 2 -113 57
-8 35 14 75 48 89 31 12 34 12 66 -5z m8656 -15 c47 -47 9 -134 -59 -134 -61
0 -100 58 -74 112 26 53 90 63 133 22z m-8821 -16 c30 -30 13 -74 -29 -74 -42
0 -59 44 -29 74 8 9 22 16 29 16 7 0 21 -7 29 -16z m314 4 c17 -17 15 -67 -3
-74 -8 -4 -26 -3 -40 0 -43 11 -30 86 15 86 9 0 21 -5 28 -12z m8320 0 c29
-29 7 -78 -35 -78 -35 0 -52 43 -28 70 20 23 45 26 63 8z m317 -8 c15 -17 16
-24 7 -45 -20 -43 -82 -28 -82 20 0 45 44 59 75 25z m-10775 -25 c0 -24 -2
-25 -75 -25 -73 0 -75 1 -75 25 0 24 2 25 75 25 73 0 75 -1 75 -25z m1628 -51
c67 -43 52 -106 -53 -224 -42 -47 -79 -86 -83 -88 -12 -4 -70 98 -93 163 -11
32 -23 89 -26 125 l-6 67 119 -14 c66 -8 129 -21 142 -29z m898 -74 c-15 -71
-58 -175 -89 -215 -15 -19 -18 -18 -91 55 -91 90 -113 129 -96 171 18 44 64
66 180 86 l105 19 3 -21 c2 -12 -4 -55 -12 -95z m7612 100 c85 -10 109 -17
133 -37 56 -47 34 -110 -80 -233 -67 -72 -71 -74 -85 -55 -53 72 -106 225
-106 308 0 32 3 38 18 33 9 -2 63 -10 120 -16z m1028 -50 c-7 -79 -39 -175
-80 -239 l-28 -44 -89 90 c-77 78 -89 95 -89 125 0 24 8 42 28 60 32 30 47 36
167 59 50 9 92 17 94 18 2 1 1 -30 -3 -69z m-9015 -12 c-15 -39 -72 -99 -108
-114 -43 -18 -43 -18 -37 15 3 16 1 38 -5 49 -9 17 -8 22 9 27 11 4 27 17 36
30 13 19 21 22 53 18 26 -4 41 -1 47 8 12 20 16 -4 5 -33z m8291 24 c27 4 37
-1 64 -29 17 -18 27 -36 22 -39 -5 -4 -8 -24 -6 -45 3 -32 1 -38 -12 -34 -56
22 -130 106 -130 148 0 16 3 17 15 7 8 -7 29 -10 47 -8z m344 -17 c-12 -45
-106 -135 -143 -135 -4 0 -8 21 -8 46 0 39 5 52 32 79 26 26 37 30 66 27 20
-2 38 1 42 8 11 18 18 3 11 -25z m-8913 -12 c24 -27 27 -35 17 -54 -9 -16 -9
-28 -1 -45 13 -30 6 -30 -43 -1 -36 23 -96 97 -96 121 0 6 20 11 48 12 41 0
51 -4 75 -33z m105 -45 c27 -27 7 -78 -29 -78 -21 0 -49 26 -49 45 0 35 53 58
78 33z m8636 -10 c13 -19 14 -25 2 -43 -7 -11 -24 -20 -36 -20 -12 0 -29 9
-36 20 -12 18 -11 24 2 43 8 12 24 22 34 22 10 0 26 -10 34 -22z m-8599 -209
c33 -29 142 -196 133 -204 -14 -14 -134 -35 -198 -35 -67 0 -180 22 -180 36 0
2 20 44 44 93 71 140 129 173 201 110z m8622 12 c29 -18 152 -205 141 -216 -2
-2 -30 -11 -63 -20 -75 -19 -197 -19 -262 0 l-51 15 36 82 c64 143 124 184
199 139z"/>
</g>
</svg>
