<?xml version="1.0" standalone="no"?>
<!DOCTYPE svg PUBLIC "-//W3C//DTD SVG 20010904//EN"
 "http://www.w3.org/TR/2001/REC-SVG-20010904/DTD/svg10.dtd">
<svg version="1.0" xmlns="http://www.w3.org/2000/svg"
 width="1280.000000pt" height="640.000000pt" viewBox="0 0 1280.000000 640.000000"
 preserveAspectRatio="xMidYMid meet">
<g transform="translate(0.000000,640.000000) scale(0.100000,-0.100000)"
fill="__replace_color_here__" stroke="none">
<path d="M2627 5644 c-3 -3 18 -42 47 -87 46 -72 52 -87 49 -122 l-5 -40 -221
-29 c-122 -16 -226 -32 -232 -36 -5 -4 -58 -10 -116 -14 -141 -9 -253 -27
-499 -83 -132 -31 -210 -53 -222 -65 -38 -38 -35 -96 7 -146 14 -17 23 -37 19
-45 -3 -10 2 -18 15 -22 18 -5 1 -21 -102 -96 -68 -49 -208 -161 -310 -249
-167 -143 -188 -158 -197 -141 -5 11 -33 36 -61 57 l-52 38 -29 -34 c-15 -19
-28 -37 -28 -41 0 -4 21 -30 46 -58 l46 -51 -31 -26 c-17 -14 -58 -39 -92 -56
-115 -58 -262 -232 -366 -434 l-38 -73 22 -29 21 -29 -53 -199 c-29 -109 -67
-248 -85 -309 -17 -60 -33 -145 -37 -188 -5 -70 -11 -86 -61 -175 l-55 -97 -1
-165 c-2 -331 79 -605 216 -736 24 -23 57 -49 73 -57 69 -34 366 -127 438
-137 116 -15 114 -16 109 25 -7 55 0 62 49 56 l43 -6 13 -78 c19 -112 68 -254
119 -344 122 -214 271 -353 489 -458 352 -170 743 -144 1077 70 41 27 118 93
178 154 136 139 199 243 274 455 6 17 30 18 694 12 378 -4 1189 -11 1802 -16
613 -6 1588 -15 2165 -21 578 -5 1106 -9 1175 -9 69 1 152 1 186 1 l60 -1 32
-78 c53 -129 126 -238 236 -348 56 -56 134 -123 174 -149 381 -245 845 -240
1225 12 151 101 307 287 381 457 18 42 36 79 39 82 4 4 44 6 89 5 97 -2 542
32 708 55 227 30 403 75 553 141 110 48 131 65 162 126 38 79 36 134 -10 238
-35 80 -37 88 -31 159 16 188 16 190 41 190 13 0 26 7 29 16 10 26 7 346 -4
385 -6 20 -28 61 -49 92 -31 43 -55 104 -106 259 -74 227 -96 267 -203 370
-193 187 -532 331 -1042 442 -288 64 -752 136 -1130 176 -156 17 -227 29 -297
52 l-91 29 -54 -27 -53 -27 -75 38 c-105 53 -96 48 -295 158 -631 351 -1448
695 -2367 998 -277 91 -374 112 -703 153 -801 101 -1855 81 -3095 -58 l-205
-23 -36 32 c-37 33 -52 37 -171 51 -55 6 -61 9 -118 70 -62 67 -63 68 -73 58z
m4267 -265 c809 -254 1727 -628 2339 -955 215 -114 477 -265 477 -275 0 -14
-158 -58 -212 -59 -10 0 -68 30 -130 67 -530 314 -1283 691 -1793 895 -287
115 -685 251 -842 288 -29 6 -53 15 -53 18 0 9 63 61 74 62 5 0 68 -19 140
-41z m-1957 -275 c28 -8 65 -26 82 -40 46 -39 42 -69 -20 -129 -138 -135 -228
-324 -247 -520 l-7 -70 -110 1 c-60 1 -295 5 -521 9 l-411 7 -140 225 -140
225 28 52 28 52 138 37 c373 100 687 157 943 171 115 6 324 -5 377 -20z m1053
-19 c618 -33 1123 -146 1596 -357 l111 -49 17 -75 c22 -102 23 -100 -23 -96
l-39 4 -81 -159 c-44 -87 -86 -166 -93 -176 -12 -17 -36 -16 -508 19 -272 19
-604 43 -737 53 -134 9 -247 21 -251 26 -14 16 -183 647 -189 707 -9 93 9 123
67 112 8 -1 67 -5 130 -9z m-4338 -232 c117 -64 137 -78 121 -86 -10 -6 -184
-106 -387 -224 l-368 -213 -124 0 -125 0 183 158 c243 210 323 275 448 365 58
42 107 77 108 77 2 0 67 -34 144 -77z m6425 -403 l56 -30 -51 0 c-47 0 -51 2
-61 30 -5 17 -8 30 -5 30 2 0 30 -13 61 -30z m-367 -242 c9 -48 2 -58 -42 -58
l-28 0 27 55 c15 30 29 52 31 50 3 -2 8 -23 12 -47z m-6280 -2502 c0 -2 -9 -6
-20 -9 -11 -3 -20 -1 -20 4 0 5 9 9 20 9 11 0 20 -2 20 -4z m208 -81 c11 -23
7 -29 -59 -87 -93 -83 -93 -83 -123 -52 -24 27 -54 109 -43 121 5 5 160 37
203 42 6 0 16 -10 22 -24z m903 -56 l89 -51 -42 -60 c-23 -33 -63 -78 -87
-100 -41 -36 -48 -39 -86 -33 -22 4 -58 15 -80 24 -44 20 -109 75 -103 90 1 5
26 25 53 44 28 18 68 57 90 85 22 28 48 51 59 51 10 1 59 -22 107 -50z m-696
-130 c17 -6 53 -17 80 -24 28 -6 50 -16 50 -21 -1 -5 -4 -55 -9 -111 -8 -103
-8 -103 -35 -103 -35 0 -134 26 -186 49 -36 16 -43 25 -55 65 -15 54 -9 136
13 189 l16 38 49 -35 c26 -19 61 -40 77 -47z m7885 68 c0 -2 -14 -13 -31 -26
-29 -22 -31 -22 -50 -5 -30 27 -23 34 31 34 28 0 50 -1 50 -3z m211 -16 c38
-29 104 -60 162 -75 l52 -14 -2 -53 c-1 -30 -5 -81 -8 -115 l-6 -61 -72 14
c-40 7 -97 26 -127 41 -49 24 -56 32 -68 72 -15 51 -10 121 12 174 17 41 24
43 57 17z m830 -33 c-16 -24 -52 -65 -79 -92 -48 -47 -51 -48 -93 -41 -62 10
-120 40 -159 80 -19 19 -32 36 -29 38 2 2 22 16 44 30 39 26 44 27 193 27
l153 0 -30 -42z m-8600 -132 c21 -46 39 -88 39 -94 0 -13 -92 -52 -123 -52
-23 0 -23 2 -16 53 4 28 8 77 8 108 1 61 5 69 33 69 14 0 30 -22 59 -84z
m8183 4 c20 -43 36 -86 36 -94 0 -17 -56 -44 -109 -53 l-34 -6 7 49 c3 27 9
79 13 117 5 61 8 67 28 67 18 0 29 -15 59 -80z"/>
</g>
</svg>
