<?xml version="1.0" standalone="no"?>
<!DOCTYPE svg PUBLIC "-//W3C//DTD SVG 20010904//EN"
 "http://www.w3.org/TR/2001/REC-SVG-20010904/DTD/svg10.dtd">
<svg version="1.0" xmlns="http://www.w3.org/2000/svg"
 width="1280.000000pt" height="640.000000pt" viewBox="0 0 1280.000000 640.000000"
 preserveAspectRatio="xMidYMid meet">
<g transform="translate(0.000000,640.000000) scale(0.100000,-0.100000)"
fill="__replace_color_here__" stroke="none">
<path d="M8895 6114 c-627 -100 -2172 -334 -2265 -342 -187 -18 -260 -50 -260
-114 0 -34 1 -34 -180 -83 -187 -51 -451 -148 -740 -272 -271 -115 -883 -416
-1225 -601 -294 -158 -934 -510 -1065 -584 -127 -72 -212 -102 -366 -128 -149
-26 -320 -38 -310 -22 4 6 13 9 20 6 8 -3 70 28 137 68 188 112 377 194 562
243 37 10 67 22 67 26 0 15 -25 10 -147 -27 -65 -20 -143 -42 -173 -49 -114
-25 -176 -48 -205 -74 -16 -15 -88 -63 -160 -106 -71 -43 -137 -84 -145 -90
-9 -8 -91 -16 -220 -23 -204 -11 -206 -11 -335 -55 -449 -153 -765 -325 -957
-519 -84 -85 -137 -163 -194 -283 l-44 -92 -63 -23 c-104 -38 -197 -89 -249
-138 -89 -84 -102 -144 -43 -202 l35 -34 0 -98 0 -98 -73 0 c-128 0 -201 -53
-265 -190 -21 -45 -26 -71 -26 -140 -1 -75 2 -90 26 -132 19 -32 41 -52 70
-67 45 -21 216 -46 249 -36 34 11 20 -10 -76 -114 -53 -57 -108 -126 -122
-154 -66 -131 -26 -283 92 -352 45 -27 85 -37 362 -95 271 -56 410 -59 491
-10 31 19 32 22 32 89 0 39 3 72 8 74 4 2 53 2 109 -1 102 -4 103 -5 103 -29
0 -57 43 -228 79 -316 127 -311 396 -545 728 -634 87 -23 117 -26 263 -26 146
0 176 3 263 26 410 109 710 431 790 845 l22 112 57 0 58 0 0 -87 c0 -49 3
-104 6 -125 l6 -36 2647 -5 c1468 -3 2788 -10 2966 -15 176 -6 430 -14 565
-18 l245 -7 -2 106 -3 106 38 6 c20 4 48 8 62 11 24 4 26 1 51 -104 121 -502
586 -848 1098 -819 431 25 804 301 951 704 42 117 61 230 61 374 0 69 -3 133
-6 142 -7 16 31 26 115 30 34 2 35 1 38 -38 6 -100 13 -125 33 -125 53 0 136
56 164 111 10 18 19 118 30 310 9 156 18 294 21 307 4 18 11 22 39 22 55 0 60
19 59 225 0 185 -14 277 -49 346 -18 34 -69 69 -102 69 -19 0 -22 7 -28 64 -7
62 -10 68 -95 173 -80 98 -88 113 -94 163 -13 98 -46 210 -111 375 -74 187
-83 223 -62 256 13 22 10 36 -43 183 -41 113 -63 162 -76 167 -12 4 -33 42
-58 105 -109 276 -284 560 -471 765 -33 35 -44 56 -49 95 -13 86 -57 278 -73
311 -18 39 -70 65 -173 87 -173 36 -887 145 -1320 200 -525 67 -884 101 -1258
117 -420 19 -1228 -7 -1627 -51 -107 -12 -360 -49 -392 -57 -33 -8 -28 1 19
32 45 30 -32 17 1578 275 382 61 710 114 728 117 17 3 32 9 32 14 0 11 4 12
-175 -17z m229 -710 c640 -66 1325 -236 1416 -352 20 -24 22 -36 18 -122 -12
-270 -176 -468 -453 -549 -629 -183 -1389 -258 -1585 -156 -57 29 -58 38 -71
344 -13 319 -3 526 31 668 37 156 50 171 155 184 77 10 311 2 489 -17z m-1410
7 c146 -8 151 -9 173 -35 27 -32 29 -67 9 -169 -8 -40 -29 -146 -46 -237 -17
-91 -49 -257 -70 -370 -90 -474 -100 -527 -106 -567 -8 -50 38 -40 -399 -83
-170 -16 -672 -66 -1114 -110 -443 -44 -813 -80 -823 -80 -11 0 -18 7 -18 19
0 21 -280 460 -303 475 -8 5 -26 6 -41 2 -32 -8 -61 -65 -50 -99 3 -11 51
-101 105 -199 55 -98 99 -180 99 -183 0 -3 -72 -5 -160 -5 l-160 0 -28 58 -29
57 29 45 c36 57 48 100 48 178 0 76 -19 125 -68 175 -35 36 -121 77 -162 77
-10 0 -21 4 -24 8 -3 5 63 78 147 163 172 175 257 237 477 348 582 294 1431
500 2210 534 128 6 157 6 304 -2z m-4894 -1242 c-24 -11 -50 -25 -57 -31 -9
-7 -13 -7 -13 1 0 13 76 51 100 50 8 0 -5 -9 -30 -20z m9410 -369 c0 -13 -1
-13 -10 0 -5 8 -10 22 -10 30 0 13 1 13 10 0 5 -8 10 -22 10 -30z"/>
</g>
</svg>
