<?xml version="1.0" standalone="no"?>
<!DOCTYPE svg PUBLIC "-//W3C//DTD SVG 20010904//EN"
 "http://www.w3.org/TR/2001/REC-SVG-20010904/DTD/svg10.dtd">
<svg version="1.0" xmlns="http://www.w3.org/2000/svg"
 width="1280.000000pt" height="640.000000pt" viewBox="0 0 1280.000000 640.000000"
 preserveAspectRatio="xMidYMid meet">
<g transform="translate(0.000000,640.000000) scale(0.100000,-0.100000)"
fill="__replace_color_here__" stroke="none">
<path d="M7990 5624 c-52 -41 -144 -107 -205 -147 l-110 -74 -195 15 c-261 19
-1192 22 -1465 4 -693 -44 -844 -61 -1108 -124 -112 -26 -154 -43 -335 -133
-397 -196 -793 -437 -1127 -685 -128 -96 -176 -110 -373 -110 -85 0 -182 -4
-216 -10 -33 -5 -162 -17 -286 -26 -822 -57 -1585 -201 -1939 -364 -64 -30
-71 -36 -92 -84 -12 -28 -23 -77 -25 -108 -2 -34 -17 -96 -37 -150 -19 -51
-43 -117 -53 -147 l-19 -54 -87 2 c-97 2 -167 -19 -187 -58 -24 -43 -43 -236
-43 -426 0 -296 45 -617 100 -704 55 -91 179 -154 347 -179 39 -6 199 -13 357
-16 l288 -6 -6 48 c-3 26 -7 59 -9 75 -3 19 0 27 11 27 8 0 36 7 62 15 64 21
219 17 214 -5 -2 -8 -6 -64 -9 -125 -13 -272 81 -515 278 -716 47 -49 77 -82
67 -75 -16 12 -29 12 -76 0 -31 -7 -85 -13 -119 -14 -84 0 -80 -17 5 -25 112
-10 246 -25 272 -31 25 -5 25 -5 5 11 -11 9 5 3 35 -13 394 -213 894 -114
1169 231 122 154 186 321 206 541 l7 69 511 -7 c282 -3 922 -11 1422 -16 501
-6 1286 -15 1745 -20 459 -6 1038 -10 1285 -10 248 0 475 -3 506 -6 l57 -6 7
-57 c16 -128 82 -300 158 -410 75 -110 212 -231 339 -302 55 -30 60 -41 7 -14
-16 9 -33 14 -38 11 -4 -3 -96 -1 -202 5 -373 19 -587 21 -2529 23 -2110 3
-2799 -3 -2892 -24 -89 -20 -89 -52 0 -93 110 -51 237 -57 997 -43 215 4 1121
9 2015 11 894 3 1661 7 1705 9 379 17 647 32 849 47 72 5 144 9 160 9 l31 1
-25 15 c-17 10 -18 13 -5 9 11 -4 28 -10 38 -13 15 -4 16 -7 5 -14 -10 -8 -9
-9 4 -5 9 3 58 -3 110 -13 112 -24 248 -25 355 -5 76 15 80 14 168 -11 50 -14
122 -36 160 -49 125 -43 197 -56 330 -60 72 -2 184 3 250 10 81 10 178 12 300
9 189 -6 246 2 269 39 24 37 -4 42 -252 43 -216 2 -276 5 -324 20 -9 3 -25 6
-35 8 -10 2 -65 21 -123 42 -104 37 -107 38 -278 41 -157 3 -176 1 -212 -17
-22 -11 -40 -18 -40 -15 0 2 21 16 48 29 114 58 260 190 338 308 89 133 138
274 154 442 9 93 14 115 24 105 2 -2 18 -103 35 -224 40 -281 36 -265 66 -265
31 0 31 -7 0 245 -27 216 -30 265 -16 265 4 0 104 18 221 40 179 34 233 40
343 40 127 0 130 0 161 -28 l32 -27 121 7 c66 4 151 14 187 22 88 21 103 20
111 -4 4 -12 18 -23 36 -27 23 -4 30 -12 35 -42 10 -52 12 -54 49 -25 27 21
33 30 25 44 -6 10 -5 21 0 26 6 6 6 23 0 44 -17 61 -17 61 66 58 l76 -3 27
-70 c26 -70 27 -70 81 -88 72 -24 121 -15 171 30 49 44 73 107 67 173 -7 68
-16 76 -75 64 l-48 -9 -6 -56 c-7 -68 -13 -79 -43 -79 -34 0 -46 20 -58 94
l-11 66 -50 15 c-62 18 -57 19 -57 -4 0 -11 -4 -22 -9 -25 -13 -8 -134 35
-124 45 4 4 121 13 258 19 268 13 295 19 295 65 0 47 -35 65 -123 65 l-80 0 7
43 c19 127 19 163 1 191 -34 52 -108 72 -153 40 -12 -8 -22 -12 -22 -7 0 30
42 215 56 248 22 51 33 331 15 399 -9 36 -8 51 5 83 26 60 13 200 -25 278 -27
56 -51 156 -56 232 -1 17 -8 39 -15 48 -38 46 -19 45 -958 55 -488 5 -1001 10
-1139 10 l-253 0 0 123 0 123 -392 368 c-221 208 -408 375 -428 384 -59 25
-128 20 -187 -13 l-51 -29 -40 18 c-73 33 -133 20 -245 -52 -53 -34 -97 -62
-100 -62 -2 0 -15 39 -27 86 -19 71 -31 94 -68 135 -84 94 -156 123 -360 144
-139 15 -161 22 -162 50 0 6 61 55 135 110 161 118 173 129 155 150 -23 27
-54 15 -150 -61z m-190 -219 c0 -9 -6 -12 -15 -9 -8 4 -12 10 -9 15 8 14 24
10 24 -6z m1347 -556 c98 -83 182 -155 187 -159 4 -5 -26 -10 -69 -12 l-77 -3
-130 144 c-124 137 -129 144 -112 162 9 10 18 19 20 19 2 0 83 -68 181 -151z
m-457 88 c0 -18 9 -67 20 -108 24 -89 45 -187 55 -252 6 -47 6 -48 -14 -37
-43 22 -54 66 -65 253 -6 97 -8 177 -4 177 5 0 8 -15 8 -33z m-1328 3 l298 0
-2 -102 c-1 -88 -2 -95 -8 -48 -4 30 -7 44 -8 31 -2 -21 -6 -23 -33 -17 -17 3
-45 6 -61 6 -23 0 -29 4 -24 15 8 21 -6 19 -65 -9 -30 -15 -46 -19 -39 -10 7
7 20 14 29 15 25 1 -134 26 -244 38 -231 24 -320 31 -500 36 -203 6 -235 10
-235 25 0 6 63 11 158 12 l157 2 -190 7 c-128 4 -82 5 139 3 181 -2 464 -4
628 -4z m-1442 -19 c-19 -5 -26 -14 -28 -39 -2 -19 -12 -38 -23 -45 -10 -6
-19 -19 -19 -28 0 -20 -27 -26 -160 -39 -221 -22 -419 -53 -630 -100 -30 -7
-71 -15 -90 -20 -19 -4 -71 -18 -115 -30 -44 -13 -93 -23 -110 -24 -18 -1 -40
-11 -55 -26 -32 -33 -70 -64 -70 -59 0 3 30 34 67 69 37 36 58 54 48 40 l-20
-25 22 19 c13 10 20 23 17 27 -3 5 10 27 28 49 82 99 416 178 933 220 77 6
149 13 160 14 11 2 31 3 45 4 l25 0 -25 -7z m2640 -384 c26 -412 28 -374 -15
-373 l-35 1 6 140 c4 77 1 230 -5 340 -11 188 -11 200 6 213 10 7 19 9 20 5 1
-4 12 -151 23 -326z m-1287 266 c-7 -2 -21 -2 -30 0 -10 3 -4 5 12 5 17 0 24
-2 18 -5z m217 -12 c-20 -4 -42 -11 -50 -15 -8 -4 -6 0 4 8 11 9 34 15 50 15
31 -1 31 -1 -4 -8z m-110 -15 c0 -2 -8 -10 -17 -17 -16 -13 -17 -12 -4 4 13
16 21 21 21 13z m-1500 -41 c0 -2 -10 -9 -22 -15 -22 -11 -22 -10 -4 4 21 17
26 19 26 11z m-290 -35 c-34 -11 -60 -11 -35 0 11 5 29 8 40 8 16 0 15 -2 -5
-8z m-73 -16 c-3 -3 -12 -4 -19 -1 -8 3 -5 6 6 6 11 1 17 -2 13 -5z m108 -4
c-3 -5 -12 -10 -18 -10 -7 0 -6 4 3 10 19 12 23 12 15 0z m-298 -46 c-3 -3
-12 -4 -19 -1 -8 3 -5 6 6 6 11 1 17 -2 13 -5z m-817 -134 c11 -8 8 -9 -11 -4
-21 4 -44 -6 -112 -51 -47 -32 -88 -65 -90 -74 -4 -14 -5 -14 -6 1 -1 11 30
39 87 77 90 62 106 68 132 51z m47 -16 c-3 -3 -12 -4 -19 -1 -8 3 -5 6 6 6 11
1 17 -2 13 -5z m5004 -57 c98 -11 109 -15 143 -45 l38 -33 -12 -67 c-12 -67
-34 -118 -56 -126 -7 -3 -57 43 -110 102 -54 59 -114 124 -133 145 l-35 37 29
-1 c17 0 78 -6 136 -12z m-5156 -27 c3 -6 -1 -7 -9 -4 -18 7 -21 14 -7 14 6 0
13 -4 16 -10z m4844 -18 c66 -26 102 -59 145 -132 58 -99 78 -90 -193 -90
l-239 0 -4 108 c-2 59 -3 109 -1 111 1 2 26 10 55 17 72 18 172 12 237 -14z
m-4897 -17 c3 -13 1 -22 -3 -19 -9 5 -13 44 -5 44 2 0 6 -11 8 -25z m4443 6
c14 -24 6 -110 -15 -159 -34 -79 -47 -68 -55 49 -6 81 -5 103 6 110 19 12 56
11 64 0z m-4355 -31 c6 -11 8 -20 6 -20 -3 0 -10 9 -16 20 -6 11 -8 20 -6 20
3 0 10 -9 16 -20z m-4078 -1270 c3 -85 6 -156 5 -156 -1 -1 -24 -5 -51 -9
l-49 -7 6 154 c6 129 10 155 24 166 10 7 27 11 38 10 19 -3 20 -13 27 -158z
m-24 -247 c31 -5 32 -7 31 -52 0 -25 -6 -73 -13 -105 -11 -53 -16 -61 -41 -68
-16 -4 -31 -5 -33 -3 -3 3 -7 59 -10 126 -5 117 -4 122 14 115 10 -4 34 -10
52 -13z m11934 -212 c22 -19 30 -33 23 -39 -14 -13 -105 -24 -105 -12 0 16 33
80 42 80 4 0 22 -13 40 -29z m-11802 -241 c35 -55 81 -99 149 -142 25 -15 38
-28 29 -28 -43 0 -196 33 -239 52 -45 19 -109 76 -109 98 0 10 49 46 81 59 43
17 56 12 89 -39z m9570 -1210 c-8 -5 -19 -10 -25 -10 -5 0 -3 5 5 10 8 5 20
10 25 10 6 0 3 -5 -5 -10z"/>
<path d="M6828 4923 c12 -2 32 -2 45 0 12 2 2 4 -23 4 -25 0 -35 -2 -22 -4z"/>
<path d="M6938 4923 c12 -2 30 -2 40 0 9 3 -1 5 -23 4 -22 0 -30 -2 -17 -4z"/>
<path d="M7123 4923 c9 -2 23 -2 30 0 6 3 -1 5 -18 5 -16 0 -22 -2 -12 -5z"/>
<path d="M7198 4923 c7 -3 16 -2 19 1 4 3 -2 6 -13 5 -11 0 -14 -3 -6 -6z"/>
</g>
</svg>
