<?xml version="1.0" standalone="no"?>
<!DOCTYPE svg PUBLIC "-//W3C//DTD SVG 20010904//EN"
 "http://www.w3.org/TR/2001/REC-SVG-20010904/DTD/svg10.dtd">
<svg version="1.0" xmlns="http://www.w3.org/2000/svg"
 width="1280.000000pt" height="690.000000pt" viewBox="0 0 1280.000000 690.000000"
 preserveAspectRatio="xMidYMid meet">
<g transform="translate(0.000000,690.000000) scale(0.100000,-0.100000)"
fill="__replace_color_here__" stroke="none">
<path d="M1408 6369 c-145 -19 -254 -87 -276 -174 -12 -45 -36 -644 -53 -1280
-6 -231 -14 -1130 -18 -1999 l-7 -1578 -40 -37 c-22 -20 -68 -61 -102 -91
l-63 -55 15 -94 c9 -52 19 -98 23 -101 5 -4 116 -15 248 -24 132 -9 259 -19
283 -23 l42 -5 0 136 0 136 -37 0 c-71 0 -71 1 2 196 69 185 155 373 180 394
7 6 37 10 69 8 l56 -3 -36 -50 c-134 -186 -200 -442 -174 -667 61 -527 505
-904 1029 -875 243 14 463 110 635 281 141 139 236 317 277 521 17 86 15 286
-5 369 -9 38 -15 71 -13 73 4 3 91 -184 147 -320 l33 -77 68 0 69 0 0 -47 c0
-27 4 -54 8 -61 7 -9 47 -12 168 -10 l159 3 5 54 5 55 445 -3 c245 -2 677 -7
960 -10 l515 -6 5 -55 5 -55 94 -3 c60 -2 98 1 107 9 8 7 14 30 14 56 l0 45
938 -8 c1397 -13 1472 -13 1505 9 15 9 27 26 27 37 0 10 4 21 9 24 4 3 11 -21
14 -53 13 -118 77 -284 157 -401 130 -191 343 -341 570 -402 113 -29 346 -32
459 -5 189 46 354 140 487 279 136 142 220 303 260 499 22 110 15 323 -14 424
-11 38 -19 71 -18 73 10 9 90 -133 107 -191 l20 -69 32 6 c18 3 111 10 207 16
202 12 243 16 324 37 69 17 126 44 147 69 28 34 124 66 288 95 l165 29 48 -47
c26 -26 48 -50 48 -54 0 -3 -64 -9 -142 -12 -77 -4 -143 -8 -145 -11 -7 -6
-35 -198 -30 -203 3 -2 175 -1 382 4 l377 8 0 115 0 115 -98 87 c-55 47 -102
97 -106 110 -5 12 -26 205 -48 428 -22 223 -71 716 -110 1095 -38 380 -70 697
-70 707 0 13 -15 17 -92 21 -66 4 -229 35 -561 109 l-469 103 -48 150 c-27 83
-72 222 -100 310 -71 218 -222 697 -260 822 -39 131 -84 199 -224 339 -130
129 -253 215 -436 303 -321 155 -796 261 -1280 286 -154 8 -155 9 -166 47
l-10 33 -974 6 c-2042 13 -3054 19 -4215 24 -660 3 -1319 7 -1465 9 -146 2
-295 0 -332 -5z m8717 -1135 l50 -6 1 -127 c2 -153 24 -246 87 -365 l43 -81
54 -6 c30 -3 58 -4 63 -2 4 2 7 28 7 57 0 29 3 89 7 132 7 90 2 101 63 -131
52 -198 101 -448 101 -509 0 -60 -34 -130 -81 -168 -33 -25 -42 -27 -140 -29
l-104 -2 -202 614 -202 614 81 6 c45 3 91 6 102 7 11 1 43 -1 70 -4z m-350
-449 c96 -242 172 -441 171 -442 -2 -2 -17 4 -35 13 -104 52 -335 -64 -451
-226 -25 -34 -52 -70 -60 -80 -14 -16 -45 -18 -336 -24 l-322 -5 -15 42 c-13
34 -19 138 -32 518 -15 455 -15 478 2 530 14 41 27 60 58 81 39 26 44 27 210
30 94 2 275 4 404 3 l233 0 173 -440z m114 -476 c17 -6 36 -19 41 -29 24 -45
1 -123 -53 -178 -56 -59 -70 -62 -252 -62 l-166 0 30 43 c66 95 177 183 276
218 59 21 81 23 124 8z"/>
</g>
</svg>
