<?xml version="1.0" standalone="no"?>
<!DOCTYPE svg PUBLIC "-//W3C//DTD SVG 20010904//EN"
 "http://www.w3.org/TR/2001/REC-SVG-20010904/DTD/svg10.dtd">
<svg version="1.0" xmlns="http://www.w3.org/2000/svg"
 width="1280.000000pt" height="804.000000pt" viewBox="0 0 1280.000000 804.000000"
 preserveAspectRatio="xMidYMid meet">
<g transform="translate(0.000000,804.000000) scale(0.100000,-0.100000)"
fill="__replace_color_here__" stroke="none">
<path d="M10075 8025 c-163 -23 -708 -35 -1583 -35 l-864 0 -291 -91 c-161
-49 -332 -103 -382 -119 -49 -16 -252 -79 -450 -140 -198 -61 -400 -124 -450
-140 -49 -16 -315 -99 -590 -184 -275 -86 -671 -209 -880 -274 l-380 -118 0
-146 0 -147 30 -31 c17 -18 48 -35 72 -42 24 -6 45 -13 47 -17 5 -7 -51 -315
-212 -1174 -54 -290 -101 -529 -104 -532 -2 -3 -83 -16 -179 -30 -254 -36
-817 -115 -1354 -190 -258 -36 -482 -68 -497 -71 -26 -5 -28 -3 -28 27 0 52
-22 109 -53 141 -49 48 -178 108 -234 108 -96 -1 -126 -38 -160 -202 -14 -72
-37 -146 -54 -180 -39 -77 -72 -195 -109 -390 -35 -183 -29 -172 -152 -274
-42 -36 -93 -86 -112 -113 -33 -45 -41 -49 -128 -75 -240 -72 -536 -225 -711
-368 l-28 -23 38 -64 c21 -35 55 -83 76 -106 l37 -43 193 90 c171 81 305 134
314 124 2 -2 -31 -20 -74 -40 -184 -88 -378 -251 -498 -419 -116 -162 -219
-402 -274 -638 -11 -47 -28 -152 -37 -234 -16 -140 -16 -155 1 -254 29 -181
121 -419 240 -621 63 -106 200 -239 378 -366 127 -91 220 -145 339 -196 51
-22 113 -57 138 -78 68 -56 224 -157 320 -205 199 -100 379 -139 640 -140 156
0 189 3 305 29 266 58 446 146 650 316 202 169 372 413 455 654 88 252 108
541 56 796 -15 74 -41 173 -57 218 -38 111 -141 307 -202 385 l-49 62 64 -65
c34 -36 96 -114 137 -174 145 -213 652 -839 759 -937 49 -44 82 -61 82 -41 0
5 79 143 167 290 6 11 28 5 103 -27 114 -48 205 -73 364 -101 200 -34 376 -20
518 40 l73 32 1515 58 c833 32 1560 60 1614 62 l99 3 29 -85 c92 -274 196
-436 394 -615 111 -101 180 -148 309 -212 196 -99 411 -153 606 -153 79 0 82
-1 128 -38 100 -84 162 -118 321 -183 125 -50 249 -81 440 -110 395 -59 768
27 1069 249 104 76 154 125 226 217 236 304 337 616 336 1036 0 199 -44 419
-116 584 l-22 50 111 0 c98 0 118 4 166 26 81 38 82 40 64 149 -42 263 -190
530 -517 934 l-64 80 20 70 c30 107 29 358 -2 476 -54 210 -127 330 -246 406
l-69 44 3 48 c8 158 125 1051 207 1574 24 157 62 418 84 580 22 161 51 361 64
443 26 164 23 193 -25 306 -25 57 -54 77 -154 107 -38 11 -131 38 -205 60
-422 126 -551 161 -840 231 -269 66 -807 165 -862 160 -7 -1 -53 -7 -103 -14z
m-752 -1552 c53 -120 134 -310 180 -423 47 -113 106 -250 131 -304 26 -55 43
-103 39 -107 -5 -3 -62 -46 -128 -94 -175 -128 -398 -355 -497 -505 -42 -63
-91 -145 -109 -182 l-33 -67 -85 -15 c-47 -9 -89 -16 -92 -16 -16 0 -22 72
-24 295 -3 260 -11 310 -59 381 -35 52 -100 102 -150 115 -23 5 -54 14 -71 19
-16 5 -79 19 -140 32 -94 20 -139 23 -305 23 -179 -1 -203 -3 -295 -28 -135
-36 -222 -82 -335 -178 -91 -77 -254 -211 -309 -255 -62 -49 -197 -127 -268
-156 -190 -76 -688 -175 -891 -178 -22 0 -121 -101 -158 -160 l-34 -55 -97 6
c-54 4 -122 7 -152 8 l-53 1 277 285 277 284 37 -15 c20 -9 90 -37 156 -61
103 -39 133 -46 216 -51 115 -5 156 6 199 54 80 91 5 192 -270 365 -170 106
-409 189 -547 189 -86 0 -141 -62 -129 -148 10 -75 48 -125 146 -198 50 -36
90 -69 90 -72 0 -11 -580 -547 -592 -547 -21 0 -88 110 -103 170 -20 78 -19
159 5 405 37 386 146 1319 154 1328 3 2 467 13 1033 23 565 11 1330 25 1698
33 369 7 787 14 931 15 l260 1 97 -217z m445 201 l93 -7 -5 -51 c-3 -28 -8
-179 -11 -336 -3 -157 -8 -356 -12 -442 -5 -146 -7 -158 -25 -158 -18 0 -57
73 -109 205 -11 28 -56 134 -100 237 -87 204 -208 534 -209 567 0 5 236 -5
378 -15z m-4758 -97 c0 -17 -56 -292 -104 -515 -52 -236 -170 -713 -218 -881
l-42 -144 -101 -49 c-140 -66 -325 -111 -325 -78 0 5 49 281 109 612 60 332
115 641 121 688 6 47 17 117 25 155 7 39 16 100 20 138 l7 67 142 1 c116 1
297 10 354 17 6 1 12 -4 12 -11z m5761 -135 c4 -4 113 -178 243 -387 l236
-380 -27 -8 c-59 -16 -376 25 -498 65 -148 49 -279 170 -317 292 -32 102 -30
194 6 268 29 62 79 112 135 136 66 27 201 36 222 14z m324 -7 c95 -15 232 -58
301 -93 55 -28 151 -116 186 -171 33 -53 36 -113 13 -257 -30 -183 -33 -193
-72 -209 -66 -28 -27 -75 -340 423 -101 161 -186 299 -190 307 -6 18 -8 18
102 0z m-5132 -927 l108 -52 -23 -19 c-72 -58 -104 -77 -128 -77 -57 0 -156
101 -148 152 3 22 39 48 68 48 8 0 64 -23 123 -52z m290 -154 c98 -50 164 -92
187 -119 13 -15 12 -20 -9 -36 -26 -21 -76 -24 -136 -8 -60 16 -245 90 -245
97 0 7 102 112 108 112 2 0 45 -21 95 -46z m-4999 -2582 c-253 -169 -478 -453
-583 -738 -16 -45 -42 -139 -57 -210 -23 -107 -28 -154 -29 -276 0 -80 -3
-144 -7 -142 -19 12 -67 198 -76 294 -29 314 76 610 296 834 92 94 243 186
398 241 90 32 108 31 58 -3z m10158 -108 c70 -22 154 -62 217 -103 16 -10 3
-33 -107 -205 l-45 -69 -32 104 c-34 113 -75 215 -107 267 -11 17 -17 32 -14
32 3 0 42 -12 88 -26z m-580 -78 c71 -85 143 -226 173 -341 l23 -90 -26 -11
c-69 -29 -56 -43 -206 222 -76 134 -137 246 -135 249 10 10 95 43 104 41 6 -1
35 -33 67 -70z m-127 -282 l134 -239 -32 -32 c-17 -18 -35 -33 -39 -33 -4 0
-118 63 -253 141 l-245 141 22 31 c36 51 179 192 223 220 22 14 44 22 48 17 4
-4 68 -115 142 -246z m-8685 -67 l0 -283 -51 -13 c-43 -11 -53 -11 -60 0 -5 8
-68 119 -140 248 -104 184 -129 235 -118 242 27 17 155 63 209 75 30 6 79 12
108 13 l52 1 0 -283z m304 253 c78 -20 277 -108 290 -128 5 -9 -247 -427 -278
-460 -10 -10 -23 -8 -67 13 -30 14 -71 28 -91 31 l-38 7 0 285 0 285 53 -6
c29 -4 88 -16 131 -27z m9495 -86 c65 -68 161 -200 161 -221 0 -4 -105 -61
-234 -125 l-234 -117 -7 74 c-4 41 -5 82 -1 91 10 26 231 374 237 374 4 0 39
-34 78 -76z m-10150 -276 c71 -128 133 -241 137 -251 4 -12 -2 -27 -22 -47
-16 -16 -32 -30 -35 -30 -6 0 -486 276 -498 286 -9 8 53 88 121 155 72 71 132
117 155 118 6 1 70 -104 142 -231z m1205 -13 c29 -38 61 -85 70 -102 l16 -33
-240 -120 c-132 -66 -244 -120 -249 -120 -5 0 -20 15 -34 34 l-26 33 151 243
150 242 55 -54 c30 -29 78 -84 107 -123z m7561 -55 c116 -67 224 -131 242
-141 30 -19 31 -20 17 -49 -8 -16 -18 -48 -22 -72 l-8 -43 -47 0 c-26 1 -155
2 -287 3 l-240 2 0 41 c0 81 53 263 102 351 12 20 24 36 27 34 3 -2 101 -58
216 -126z m-9210 -21 c-9 -17 -19 -29 -22 -26 -5 5 25 57 33 57 3 0 -3 -14
-11 -31z m10827 -16 c23 -67 35 -127 43 -205 l7 -68 -280 0 -280 0 -4 36 -4
36 245 123 c135 68 248 124 252 124 3 1 12 -20 21 -46z m-10602 -183 c124 -72
226 -133 229 -135 2 -2 -4 -25 -13 -51 -9 -26 -16 -58 -16 -71 l0 -23 -271 0
-272 0 5 103 c4 86 11 122 43 215 32 93 40 110 54 102 9 -4 117 -67 241 -140z
m1574 -2 c16 -39 44 -175 48 -236 l3 -43 -275 0 -275 0 -3 35 -3 35 238 120
c131 66 242 120 246 120 4 1 14 -14 21 -31z m6581 -255 c14 -131 60 -323 104
-437 l29 -75 -82 41 c-164 82 -322 239 -416 410 -60 111 -64 107 98 111 75 1
165 4 199 5 l62 2 6 -57z m1069 20 c3 -16 8 -38 12 -51 6 -21 -11 -31 -250
-148 -142 -69 -259 -125 -260 -123 -10 12 -57 174 -66 229 -6 36 -13 77 -16
93 l-6 27 290 0 290 0 6 -27z m1419 -30 c-5 -67 -59 -263 -76 -280 -9 -8 -58
15 -202 98 -104 60 -213 123 -242 139 l-51 29 10 36 11 35 278 0 278 0 -6 -57z
m-378 -260 c129 -76 233 -142 232 -147 -2 -5 -34 -47 -71 -95 -59 -73 -167
-177 -212 -204 -9 -5 -49 57 -144 223 -71 126 -133 236 -136 244 -6 15 71 115
89 116 4 0 114 -62 242 -137z m-10057 82 c7 -25 12 -49 12 -54 0 -7 -482 -251
-496 -251 -14 0 -37 77 -49 167 -8 60 -17 125 -20 146 l-5 37 273 0 273 0 12
-45z m1409 -23 c-6 -64 -53 -239 -73 -274 -8 -13 -47 7 -250 124 l-241 139 11
40 10 39 275 0 274 0 -6 -68z m7727 22 l29 -35 -20 -27 c-40 -55 -178 -164
-262 -207 -80 -42 -209 -92 -215 -84 -36 46 -86 117 -86 122 0 6 509 266 520
266 3 0 18 -16 34 -35z m-7864 -423 c0 -20 -144 -182 -214 -242 -45 -38 -83
-69 -86 -69 -3 1 -67 111 -143 245 l-137 245 51 53 51 53 239 -139 c132 -76
239 -142 239 -146z m8494 40 c64 -114 116 -211 116 -214 0 -22 -211 -91 -312
-101 l-68 -8 0 174 0 175 46 59 c26 32 56 74 66 92 11 17 23 32 28 32 4 0 60
-94 124 -209z m-9619 158 c28 -23 51 -44 53 -48 3 -9 -306 -465 -319 -469 -22
-8 -205 158 -271 246 -22 30 -38 55 -36 57 9 8 504 254 513 254 6 1 33 -17 60
-40z m583 -319 c72 -131 132 -243 132 -247 0 -26 -217 -97 -322 -106 l-58 -6
0 288 0 287 43 11 c23 5 49 11 57 11 10 1 61 -82 148 -238z m-380 220 c9 0 12
-58 12 -259 0 -142 -3 -273 -6 -290 l-7 -32 -56 7 c-112 13 -307 75 -299 94 2
4 71 115 153 248 127 205 153 241 170 237 11 -3 26 -5 33 -5z m9032 -276 l0
-107 -67 7 c-38 3 -92 12 -121 19 l-53 12 89 62 c49 35 99 74 112 88 13 14 27
25 32 25 4 0 8 -48 8 -106z"/>
</g>
</svg>
