<?xml version="1.0" standalone="no"?>
<!DOCTYPE svg PUBLIC "-//W3C//DTD SVG 20010904//EN"
 "http://www.w3.org/TR/2001/REC-SVG-20010904/DTD/svg10.dtd">
<svg version="1.0" xmlns="http://www.w3.org/2000/svg"
 width="1280.000000pt" height="1034.000000pt" viewBox="0 0 1280.000000 1034.000000"
 preserveAspectRatio="xMidYMid meet">
<metadata>
Created by potrace 1.15, written by Peter Selinger 2001-2017
</metadata>
<g transform="translate(0.000000,1034.000000) scale(0.100000,-0.100000)"
fill="#9e9e9e" stroke="none">
<path d="M2843 10325 c-112 -30 -218 -102 -277 -187 -24 -35 -297 -655 -735
-1668 l-697 -1612 -115 -38 c-233 -76 -405 -183 -585 -364 -214 -216 -336
-438 -406 -744 l-22 -97 -3 -1822 -3 -1823 490 0 490 0 0 -472 c0 -508 8 -650
39 -769 143 -536 715 -849 1246 -682 314 99 550 342 652 670 l28 88 3 583 3
582 3449 0 3449 0 3 -582 3 -583 28 -90 c140 -450 546 -739 1001 -712 430 26
796 327 901 742 28 113 34 242 35 748 l0 477 490 0 490 0 -3 1818 -3 1817 -22
97 c-71 307 -194 532 -411 748 -180 179 -349 284 -577 359 l-118 39 -687 1602
c-378 881 -695 1618 -705 1638 -11 21 -48 67 -84 103 -72 73 -161 123 -249
139 -35 7 -1246 10 -3550 9 -2980 0 -3504 -2 -3548 -14z m6861 -1335 c85 -201
314 -747 511 -1215 196 -467 360 -858 362 -867 5 -17 -199 -18 -4177 -18
-3978 0 -4182 1 -4177 18 2 9 143 346 312 747 501 1193 697 1659 706 1683 l9
22 3150 -2 3151 -3 153 -365z m-7554 -3591 c368 -68 671 -350 772 -719 31
-115 33 -376 4 -485 -100 -371 -384 -644 -755 -726 -104 -23 -278 -25 -383 -5
-431 83 -762 447 -796 876 -9 107 1 253 23 334 136 507 624 819 1135 725z
m8881 -4 c382 -79 682 -381 765 -770 20 -94 20 -289 -1 -389 -81 -393 -389
-696 -783 -772 -95 -18 -266 -18 -362 0 -375 72 -675 355 -776 731 -29 109
-27 370 4 485 112 408 455 695 877 734 61 5 203 -5 276 -19z"/>
</g>
</svg>
